<svg id="docker-tags" xmlns="http://www.w3.org/2000/svg" viewBox="0 0 290.33 161.31"><defs><style>.cls-1{fill:#2496ed;stroke-width:10px;}.cls-1,.cls-2{stroke:#2854a1;stroke-miterlimit:10;}.cls-2{fill:none;stroke-width:6px;}.cls-3{fill:#2854a1;}.cls-4{fill:#fff;}</style></defs><title>docker-tags</title><path id="tag" class="cls-1" d="M106.57,29.87H293.92A14.11,14.11,0,0,1,308,43.94V167.1a14.11,14.11,0,0,1-14.08,14.07H106.57a23.47,23.47,0,0,1-16.08-6.37L35.05,122.6a23.45,23.45,0,0,1,0-34.16L90.49,36.25A23.44,23.44,0,0,1,106.57,29.87Z" transform="translate(-22.67 -24.87)"/><g id="line"><line class="cls-2" x1="140.5" y1="98.49" x2="252" y2="98.49"/></g><g id="line-2" data-name="line"><line class="cls-2" x1="140.5" y1="80.65" x2="252" y2="80.65"/></g><g id="line-3" data-name="line"><line class="cls-2" x1="140.5" y1="63.15" x2="252" y2="63.15"/></g><g id="eye"><circle class="cls-3" cx="83" cy="80.65" r="16"/><path class="cls-4" d="M105.67,94.52a11,11,0,1,1-11,11,11,11,0,0,1,11-11m0-10a21,21,0,1,0,21,21,21,21,0,0,0-21-21Z" transform="translate(-22.67 -24.87)"/></g><circle id="eye_burst" data-name="eye burst" class="cls-4" cx="91.33" cy="73.65" r="5"/></svg>